<svg xmlns="http://www.w3.org/2000/svg" xmlns:xlink="http://www.w3.org/1999/xlink" width="606.462" height="458.636" viewBox="0 0 606.462 458.636">
  <defs>
    <style>
      .cls-1 {
        fill: #f5e9ff;
      }

      .cls-2 {
        fill: #e5d7ff;
      }

      .cls-3 {
        fill: #456dff;
      }

      .cls-4 {
        fill: none;
        stroke: #000;
        stroke-linecap: round;
        stroke-linejoin: round;
        stroke-width: 1.794px;
      }

      .cls-10, .cls-14, .cls-4 {
        opacity: 0.25;
        mix-blend-mode: overlay;
        isolation: isolate;
      }

      .cls-5 {
        fill: #a52ce5;
      }

      .cls-14, .cls-6 {
        fill: #fff;
      }

      .cls-7 {
        fill: #320a44;
      }

      .cls-8 {
        fill: #490a0a;
      }

      .cls-9 {
        fill: #cb99ff;
      }

      .cls-11 {
        fill: url(#linear-gradient);
      }

      .cls-12 {
        fill: url(#linear-gradient-2);
      }

      .cls-13 {
        fill: url(#linear-gradient-3);
      }

      .cls-15 {
        fill: #4a0884;
      }
    </style>
    <linearGradient id="linear-gradient" x1="0.256" y1="0.663" x2="0.872" y2="0.162" gradientUnits="objectBoundingBox">
      <stop offset="0" stop-color="#ff8d8d"/>
      <stop offset="1" stop-color="#e55555"/>
    </linearGradient>
    <linearGradient id="linear-gradient-2" x1="0.023" y1="0.043" x2="1.128" y2="0.895" xlink:href="#linear-gradient"/>
    <linearGradient id="linear-gradient-3" x1="-1.226" y1="-0.593" x2="1.293" y2="0.825" xlink:href="#linear-gradient"/>
  </defs>
  <g id="_2673281" data-name="2673281" transform="translate(-72.403 -42.593)">
    <g id="OBJECTS">
      <g id="Group_13" data-name="Group 13">
        <g id="Group_1" data-name="Group 1">
          <path id="Path_1" data-name="Path 1" className="cls-1" d="M79.287,250.946S50.425,180.839,110.9,127.926s126.042,17.866,182.247,15.118S387.131,38.592,463.76,42.715s110.759,78.3,89.227,130.545S522.838,308.046,545.7,351.643s72.8,10.543,104.866,46.312S585.408,500,585.408,500H390.124s-40.014-62.362-64.559-62.143S126.932,385.42,79.287,250.946Z"/>
          <path id="Path_2" data-name="Path 2" className="cls-2" d="M497.626,203.516s67.9-85.03-6.171-136.521S377.447,123.8,314.723,135.256s-187.333-1.375-185.5,94.831S197.483,360.3,201.606,407.2s36.192,64.816,66.886,52.2S386.923,297.217,436.408,274.127,497.626,203.516,497.626,203.516Z"/>
          <path id="Path_3" data-name="Path 3" className="cls-2" d="M262.766,105.936s42.261,20.652,51.2-4.277S237.981,92.014,262.766,105.936Z"/>
        </g>
        <g id="Group_4" data-name="Group 4">
          <g id="Group_2" data-name="Group 2">
            <path id="Path_4" data-name="Path 4" className="cls-3" d="M390.359,479.156s-15.4-53.647-54.706-71.953c2.629,11.238.939,77.414,21.97,92.772H404Z"/>
            <path id="Path_5" data-name="Path 5" className="cls-4" d="M388.125,472.563s-11.917,8.781-12.478,18.1c-21.779-10.253-29.608-9.048-29.608-9.048"/>
            <path id="Path_6" data-name="Path 6" className="cls-4" d="M379.968,453s-10.939,6.825-12.135,15.708c0,0-17.256-8.558-26.971-8.851"/>
            <path id="Path_7" data-name="Path 7" className="cls-4" d="M367.082,432.9s-7.022,2.739-7.677,9.913a60.134,60.134,0,0,0-21.083-4.128"/>
            <path id="Path_8" data-name="Path 8" className="cls-4" d="M379.968,500c-2.628-4.443-9.013-19.593-16.712-46.411s-27.6-46.386-27.6-46.386"/>
          </g>
          <g id="Group_3" data-name="Group 3">
            <path id="Path_9" data-name="Path 9" className="cls-5" d="M433.109,499.975S433.3,467.091,388.794,453c-6.385,26.281,11.83,47,11.83,47Z"/>
            <path id="Path_10" data-name="Path 10" className="cls-4" d="M388.794,453S417.227,489.924,417,500"/>
            <path id="Path_11" data-name="Path 11" className="cls-4" d="M428.277,482.965S417.233,486,415.454,494.093a48.393,48.393,0,0,0-20.056-1.686"/>
            <path id="Path_12" data-name="Path 12" className="cls-4" d="M417.3,468.708s-8.9,5.22-9.451,11.464c-13.886-4.741-18.527-2.2-18.527-2.2"/>
            <path id="Path_13" data-name="Path 13" className="cls-4" d="M404.936,459.857s-4.654,3.889-5.234,8.089a36.525,36.525,0,0,0-12.206-1.229"/>
          </g>
        </g>
        <g id="Group_7" data-name="Group 7">
          <path id="Path_14" data-name="Path 14" className="cls-6" d="M225.887,317.818s-8.247-21.074-13.973-30.236-5.269-20.616-9.85-31.153-13.514-13.514-16.034-23.593a45.833,45.833,0,0,0-8.705-17.18s217.494-38.824,251.511-39,44.968,119,44.968,119l-225.011,45.3Z"/>
          <g id="Group_5" data-name="Group 5">
            <path id="Path_15" data-name="Path 15" className="cls-7" d="M302.788,280.4,299.4,269.537a4.3,4.3,0,0,0-4.831-2.975l-18.7,3.871a4.222,4.222,0,0,1-4.916-3.065l-1.441-5.823a3.618,3.618,0,0,1,.017-1.817l11.541-42.22a2.745,2.745,0,0,1,2.451-1.9l7.537-.885a4.029,4.029,0,0,1,4.169,2.464L305.97,248.4a4.214,4.214,0,0,0,4.557,2.749h0a4.264,4.264,0,0,1,4.576,2.762l1.557,4.3a3.047,3.047,0,0,1-2.15,4.22h0a3.168,3.168,0,0,0-2.213,4.344l3.633,10.551a3.5,3.5,0,0,1-2.28,4.748l-5.877,1.419A4.367,4.367,0,0,1,302.788,280.4Zm-11.795-25.629a3.155,3.155,0,0,0,2.5-4.138l-3.269-10.474c-1.08-3.46-1.873-7.272-2.607-10.666l-.338.048c-.5,3.72-1.019,6.844-1.833,10.765l-3.518,15.913.062.223Z"/>
            <path id="Path_16" data-name="Path 16" className="cls-7" d="M350.67,236.791c10.591,22.7,7.639,35.475-2.66,37.982-14.488,3.526-26.409-13.72-32.885-31.177-6.633-17.883-5.919-31.712,6.345-33.137C334.615,208.931,344.263,223.057,350.67,236.791Zm-22.709,4.247c6.055,15.36,10.871,22.277,15.249,21.323,3.888-.848,2.06-8.6-4.292-23.221-5.555-12.788-9.8-19.721-13.583-19.214C321.576,220.43,322.173,226.947,327.961,241.038Z"/>
            <path id="Path_17" data-name="Path 17" className="cls-7" d="M387.006,260.693l-4.679-8.894c-.895-1.7-2.818-2.822-4.31-2.513l-13.669,2.83a4.364,4.364,0,0,1-4.38-2.577l-2.265-4.773a3.4,3.4,0,0,1-.35-1.485l.456-34.994a1.588,1.588,0,0,1,1.537-1.585l5.746-.675a4.2,4.2,0,0,1,3.776,2.137L383.4,234.508a4.358,4.358,0,0,0,4.089,2.349h0c1.387-.257,3.219.794,4.1,2.359l2.027,3.582c.908,1.6.516,3.15-.889,3.441h0c-1.413.292-1.827,1.867-.911,3.528l4.789,8.678c.963,1.746.571,3.456-.892,3.81l-4.285,1.035C389.939,263.651,387.948,262.484,387.006,260.693Zm-14.038-21.139c1.471-.273,1.975-1.79,1.139-3.378l-4.6-8.743c-1.527-2.9-2.9-6.1-4.152-8.958l-.255.036c.353,3.114.568,5.72.712,8.979l.416,13.115.092.184Z"/>
          </g>
          <path id="Path_18" data-name="Path 18" className="cls-8" d="M418.708,472.464l-2.337,27.506H569.938l-6.872-24.157S423.7,470.661,418.708,472.464Z"/>
          <path id="Path_19" data-name="Path 19" className="cls-9" d="M573.545,482.924c-21.262,22.231-89.388,19.589-127.114,9.886-13.767-3.539-23.487-8.02-25.4-12.578-3.575-8.487-3.813-18.638-2.925-28.857.889-10.308,2.921-20.675,3.822-29.458a104.325,104.325,0,0,0,.131-14.3c-.606-13.745-2.683-30.889-3.979-40.677-.637-4.791-1.086-7.819-1.086-7.819s-38.2,47.065-50.061,57.629c-1.741,1.556-2.916,2.319-3.32,2.032-1.462-1.05-4.979-14.588-8.173-28.915-3.66-16.4-6.9-33.828-6.181-34.783a3.59,3.59,0,0,0,.219-.409c3.172-6.513,34.083-83.9,40.6-96.933,3.208-6.41,15.167-18.015,26.812-28.4,7.469-6.666,14.808-12.834,19.625-16.813,3.441-2.844,5.6-4.575,5.6-4.575s13.008-11.215,23.774-14.355,25.569-3.14,25.569-3.14a60.409,60.409,0,0,1,12.565,1.13,52.414,52.414,0,0,1,15.9,5.949c32.692,18.764,42.938,71.046,47.226,110.956,2.221,20.688,2.84,38.053,4.158,45.7C575.788,380.2,583.414,472.606,573.545,482.924Z"/>
          <path id="Path_20" data-name="Path 20" className="cls-10" d="M573.545,482.924c-21.262,22.231-89.388,19.589-127.114,9.886a35.835,35.835,0,0,1-9.236-12.129c-5.7-13.17-13.13-22.048-19.092-29.306.889-10.308,2.921-20.675,3.822-29.458a104.325,104.325,0,0,0,.131-14.3c17.7-25.354,20.486-59.832,20.105-111.311-.3-40.489-16.239-59.459-25.273-66.968,7.469-6.666,14.808-12.834,19.625-16.813,26.816,10.353,41.709,56.171,51.708,42.857,8.626-11.488,10.587-48.038,15.8-63.8a52.414,52.414,0,0,1,15.9,5.949c11.51,20.854,29.906,63.8,47.226,110.956,2.221,20.688,2.84,38.053,4.158,45.7C575.788,380.2,583.414,472.606,573.545,482.924Z"/>
          <path id="Path_21" data-name="Path 21" className="cls-11" d="M481.138,188.207s-.359.206-1,.565c-5.347,2.992-30.306,16.66-29.5,10.65.569-4.271-2.477-8.182-4.778-10.47a22.32,22.32,0,0,0-2.4-2.091s-3.588,4.935-8.074,2.692c-11.542-5.773-18.706-19.648-22.416-29.086-.937-2.382-1.655-4.481-2.166-6.1,5.158-.844,8.581-2.772,10-1.826,2.691,1.794,3.589,6.28,6.28,6.28s0-10.317,4.935-13.009c4.369-2.382,11.55,14.579,6.289,19.738a2.272,2.272,0,0,0,.367,3.5c17.643,11.713,29.849,7.469,32.819,3.226a5.931,5.931,0,0,0,.986.8C474.719,181.483,481.138,188.207,481.138,188.207Z"/>
          <path id="Path_22" data-name="Path 22" className="cls-10" d="M481.138,188.207s-.359.206-1,.565c-2.741.646-6.057,1.242-8.164-.448-10-8.02-20.061,1.552-26.117.628a22.32,22.32,0,0,0-2.4-2.091c.956-5.661-.076-7.455-6.491-13.067s-.686-8.913.211-12.053-1.346-11.215-3.588-11.215-2.692,11.215-6.281,10.766-5.383-4.485-9.42-4.037c-1.619.18-3.387,1.588-4.921,3.212-.937-2.382-1.655-4.481-2.166-6.1,5.158-.844,8.581-2.772,10-1.826,2.691,1.794,3.589,6.28,6.28,6.28s0-10.317,4.935-13.009c4.369-2.382,11.55,14.579,6.289,19.738a2.272,2.272,0,0,0,.367,3.5c17.643,11.713,29.849,7.469,32.819,3.226a5.931,5.931,0,0,0,.986.8C474.719,181.483,481.138,188.207,481.138,188.207Z"/>
          <path id="Path_23" data-name="Path 23" className="cls-7" d="M488.221,134.606v.018c-.668,12.058-11.345,27.543-11.345,31.378,0,5.832,3.589,6.729,3.589,6.729s-4.477,2.611-7.985.35a5.931,5.931,0,0,1-.986-.8c-2.97,4.243-15.176,8.487-32.819-3.226a2.272,2.272,0,0,1-.367-3.5c5.261-5.159-1.92-22.12-6.289-19.738-4.935,2.692-2.243,13.009-4.935,13.009s-3.589-4.486-6.28-6.28c-1.422-.946-4.845.982-10,1.826a27.255,27.255,0,0,1-17.809-3.172c-8.756-4.634-13.224-15.476-12.219-25.91a25.948,25.948,0,0,1,11.77-19.845,19.656,19.656,0,0,0,1.8,12.56s.9-23.326,15.251-26.914a13.886,13.886,0,0,0,0,11.214s13.906-20.635,35.887-17.046c15.951,2.6,24.134,10.842,28.328,18.715a37.8,37.8,0,0,1,4.418,16.723C486.2,123,488.562,128.34,488.221,134.606Z"/>
          <path id="Path_24" data-name="Path 24" className="cls-7" d="M442.56,207.945s-1.346-6.281.9-10.318,26.018-14.8,35.438-15.7,12.112,5.383,12.56,8.523C472.166,190,442.56,207.945,442.56,207.945Z"/>
          <path id="Path_25" data-name="Path 25" className="cls-7" d="M366.93,416.745c-.018,1.983-.364,3.162-1.122,3.257-5.36.668-18.6,6.15-21.442,2.673-.579-.7-1.341-3.6-2.171-7.814-1.166-5.9-2.472-14.391-3.611-23.026-2.028-15.435-3.517-31.356-2.705-33.908a3.325,3.325,0,0,1,.372-.8c2.521-4.06,12.946-2.889,12.946-2.889.09.134.184.278.278.43,2.956,4.8,7.4,17.567,11.067,30.558C364.135,397.94,366.974,410.869,366.93,416.745Z"/>
          <path id="Path_26" data-name="Path 26" className="cls-12" d="M342.2,414.861a59.877,59.877,0,0,1-13.126-3.261c-5.181-1.92-21.433-14.009-38.8-27.539-5.607-4.369-11.335-8.89-16.839-13.264-17.307-13.754-32.442-26.076-34.972-27.83-5.831-4.037-14.8-4.934-19.289-13.457s-.448-28.261,0-28.71,8.972,14.355,10.318,14.355,2.691-13.457,5.383-12.112,9.868,25.569,14.354,28.71c2.266,1.583,25.421,8.307,47.81,14.583,16.216,4.539,32.028,8.846,39.219,10.793a3.325,3.325,0,0,0-.372.8c-.812,2.552.677,18.473,2.705,33.908C339.723,400.47,341.029,408.958,342.2,414.861Z"/>
          <path id="Path_27" data-name="Path 27" className="cls-13" d="M342.2,414.861a59.877,59.877,0,0,1-13.126-3.261c-5.181-1.92-21.433-14.009-38.8-27.539-7.733-17.364,1.2-31.315,6.765-37.725,16.216,4.539,32.028,8.846,39.219,10.793a3.325,3.325,0,0,0-.372.8C334.609,361.91,338.947,398.407,342.2,414.861Z"/>
          <path id="Path_28" data-name="Path 28" className="cls-10" d="M480.465,172.731s-4.477,2.611-7.985.35a5.931,5.931,0,0,1-.986-.8c-2.97,4.243-15.176,8.487-32.819-3.226a2.272,2.272,0,0,1-.367-3.5c5.261-5.159-1.92-22.12-6.289-19.738-4.935,2.692-2.243,13.009-4.935,13.009s-3.589-4.486-6.28-6.28c-1.422-.946-4.845.982-10,1.826a27.255,27.255,0,0,1-17.809-3.172c-8.756-4.634-13.224-15.476-12.219-25.91.821,2.171,5.5,12.134,23.169,13.633-6.41-3.665-4.123-16.647-4.123-16.647s5.5,7.325,19.855,8.474,19.7-3.127,31.153,3.436,9.618,12.676,9.618,12.676a13.6,13.6,0,0,0-1.983-12.291c8.7,2.67,8.344,15.956,8.344,15.956s3.566-7.634,9.371-9.012a5.332,5.332,0,0,1,6.872,4.074,21.784,21.784,0,0,0,5.172-10.964c-.668,12.058-11.345,27.543-11.345,31.378C476.876,171.834,480.465,172.731,480.465,172.731Z"/>
          <path id="Path_29" data-name="Path 29" className="cls-14" d="M473.8,103.973c-7.29-10.439-22.73-14.808-35.882-13.843,11.3,4.2,11.071,11.438,11.071,11.438s-3.36-8.841-15.8-8.994-18.019,4.123-19.244,8.994,2.216,10.475,2.216,10.475-5.347-.458-8.245-8.626,1.673-12.327,1.673-12.327a13.886,13.886,0,0,0,0,11.214s13.906-20.635,35.887-17.046C461.427,87.86,469.61,96.1,473.8,103.973Z"/>
          <path id="Path_30" data-name="Path 30" className="cls-10" d="M418.077,366.935c-.637-4.791-1.086-7.819-1.086-7.819s-38.2,47.065-50.061,57.629c-.018,1.983-.364,3.162-1.122,3.257-5.36.668-18.6,6.15-21.442,2.673-.579-.7-1.341-3.6-2.171-7.814a59.877,59.877,0,0,1-13.126-3.261c-5.181-1.92-21.433-14.009-38.8-27.539-5.607-4.369-11.335-8.89-16.839-13.264,16.539,5.948,47.894,16.92,65.156,21.038,4.849,1.153,8.59,1.768,10.573,1.575,1.5-.144,3.656-1.413,6.28-3.548,1.552-1.257,3.266-2.822,5.1-4.634,19.692-19.388,53.632-67.238,53.632-77.488C414.174,295.642,436.98,325.3,418.077,366.935Z"/>
          <g id="Group_6" data-name="Group 6">
            <path id="Path_31" data-name="Path 31" className="cls-7" d="M452.859,397.955s-20.129,18.818-34.331,21.8c-4.123,13.286-2.631,22.449,7.045,22.907s30.292-15.277,32.124-27.8S452.859,397.955,452.859,397.955Z"/>
            <path id="Path_32" data-name="Path 32" className="cls-7" d="M466.806,263.837s-20.568,30.351-19.953,7.241c.287-10.636-5.576-21.205-11.99-29.512a107.611,107.611,0,0,0-15.8-16.391c-2.135-1.826,5.648-13.566,15.378-13.566,12.919,3.8,21.231,18.226,26.2,30.952A126.145,126.145,0,0,1,466.806,263.837Z"/>
            <path id="Path_33" data-name="Path 33" className="cls-10" d="M460.638,242.561a126.145,126.145,0,0,1,6.168,21.276s-20.568,30.351-19.953,7.241c.287-10.636-5.576-21.205-11.99-29.512A158.29,158.29,0,0,0,460.638,242.561Z"/>
            <path id="Path_34" data-name="Path 34" className="cls-7" d="M538.632,246.428s-38.658,19.258-25.865,0c4.544-6.841,5.056-15.6,3.827-24.053-2.23-15.337-10.2-29.66-10.2-29.66-.844-2.682,12.385-3.988,20.63,1.18a45.435,45.435,0,0,1,9.034,16.589C541.548,227.834,538.632,246.428,538.632,246.428Z"/>
            <path id="Path_35" data-name="Path 35" className="cls-10" d="M538.632,246.428s-38.658,19.258-25.865,0c4.544-6.841,5.056-15.6,3.827-24.053,7.168-4.512,13.78-8.881,19.468-11.891C541.548,227.834,538.632,246.428,538.632,246.428Z"/>
            <path id="Path_36" data-name="Path 36" className="cls-15" d="M584.414,429.628a32.709,32.709,0,0,1-.273,3.867c-2.521,17.867-46.271,37.564-62.308,41.368s-21.944-5.065-21.944-5.065c-3.9-.9-7-4.423-9.465-9.613-11.421-24.021-9.21-83.727-9.21-83.727L498.7,333.264s4.226-.605,10.636-1.3h.009c19.9-2.167,60.818-5.244,61.509,6.024.341,5.549,2.615,17.733,5.212,31.76C580.009,391.028,584.675,416.561,584.414,429.628Z"/>
            <path id="Path_37" data-name="Path 37" className="cls-10" d="M576.066,369.743c-3.476,8.249-8.114,15.2-11.856,16.337-7.558,2.288-56.117-.92-61.845-8.936s-2.476-42.3-2.476-42.3l9.447-2.889h.009c19.9-2.167,60.818-5.244,61.509,6.024C571.2,343.532,573.469,355.716,576.066,369.743Z"/>
            <path id="Path_38" data-name="Path 38" className="cls-15" d="M493.317,408.984c-5.841,30.235,6.572,60.814,6.572,60.814s-22.721,2.064-36.129-14.43-10.3-30.235-9.268-41.916c.238-2.723-3.422-10.811-3.741-16.377-.238-4.078,2.571-9.694,2.571-9.694-1.122-12.857-2.719-26.372-3.894-35.792-.242-1.938-.467-3.7-.664-5.253a30.507,30.507,0,0,1,7.967-24.7c4.288-8.263,16.234-10.124,26.542-8.518,7.913,1.233,14.857,4.517,16.616,8.518.713,1.624,1.152,4.441,1.359,8.155.188,3.36.188,7.451.027,12.044C500.611,360.991,497.2,388.888,493.317,408.984Z"/>
            <path id="Path_39" data-name="Path 39" className="cls-15" d="M565.126,366.378c-7.276,4.912-39.857,8.936-51.358,2.064-9.945-5.939-10.022-15.472-12.493-26.606-.386-1.744-.835-3.534-1.386-5.351a32.9,32.9,0,0,0-2.046-5.069c-4.064-8.178-11.1-15.153-14.57-18.3-1.265-1.153-2.059-1.79-2.059-1.79s55.485-41.377,76.7-35.528c8.739,2.4,14.88,9.918,19.11,18.495a91.854,91.854,0,0,1,8.379,31.54C585.742,334.081,572.406,361.466,565.126,366.378Z"/>
            <path id="Path_40" data-name="Path 40" className="cls-10" d="M577.022,294.3c-20.724,9.331-63.438,29.624-75.774,35.5-2.176,1.036-3.4,1.624-3.4,1.624s-16.934,24.044-33.733,24.2a25.153,25.153,0,0,1-14.682-4.023c-.242-1.938-.467-3.7-.664-5.253a30.507,30.507,0,0,1,7.967-24.7c4.288-8.263,16.234-10.124,26.542-8.518-1.265-1.153-2.059-1.79-2.059-1.79s55.485-41.377,76.7-35.528C566.651,278.206,572.792,285.719,577.022,294.3Z"/>
            <path id="Path_41" data-name="Path 41" className="cls-3" d="M580.933,271.32c-4.351,8.7-104.451,51.766-110.866,57.494q-1.353,1.212-2.687,2.324c-.359.292-.713.583-1.072.866-.888.7-1.776,1.368-2.665,1.978-.538.368-1.072.713-1.614,1.036a24.363,24.363,0,0,1-3.271,1.66,0,0,0,0,1,0,0,16.451,16.451,0,0,1-6.774,1.3c-.143-.005-.291-.009-.435-.018s-.291-.018-.435-.032a3.254,3.254,0,0,1-.422-.04,13.491,13.491,0,0,0,3.45-.121c11.488-1.889,18.392-18.078,15.422-36.169a50.543,50.543,0,0,0-2.781-10.228c-4.89-12.533-14.216-20.621-23.389-19.114-4.526.745-8.339,3.706-11.12,8.129.071-.35,2.3-10.385,28.175-20.061,26.345-9.851,52.914-18.786,59.329-21.994,4.867-2.431,18.177-11.2,31.522-12.878a28.135,28.135,0,0,1,12.457.969C580.247,231.921,585.285,262.613,580.933,271.32Z"/>
            <path id="Path_42" data-name="Path 42" className="cls-15" d="M454.138,337.768a13.625,13.625,0,0,1-3.467.121c-.14-.013-.283-.031-.427-.049l-.049-.011c-10.113-1.265-19.6-13.388-22.227-29.4-1.8-10.967.027-21.235,4.3-28.04,2.781-4.423,6.594-7.384,11.12-8.129,11.484-1.884,23.2,11.255,26.17,29.342S465.626,335.879,454.138,337.768Z"/>
            <path id="Path_43" data-name="Path 43" className="cls-4" d="M464.111,295.828s-8.6-20.205-20.768-15.958-7.025,48.1,5.421,48.256,13.973-33.291,6.185-37.261-16.187,12.369-9.926,21.99,7-6.414,5.029-11.148"/>
            <path id="Path_44" data-name="Path 44" className="cls-10" d="M580.933,271.32c-4.351,8.7-104.451,51.766-110.866,57.494q-1.353,1.212-2.687,2.324c-.359.292-.713.583-1.072.866-.888.708-1.776,1.372-2.665,1.978-.538.368-1.072.713-1.614,1.036a24.127,24.127,0,0,1-3.271,1.66,0,0,0,0,1,0,0,16.439,16.439,0,0,1-6.774,1.3c-.143-.005-.291-.009-.435-.018s-.291-.018-.435-.032a3.254,3.254,0,0,1-.422-.04,13.491,13.491,0,0,0,3.45-.121c11.488-1.889,18.392-18.078,15.422-36.169a50.543,50.543,0,0,0-2.781-10.228c5.849,4.28,13.457,8.025,22.07,7.891,18.881-.292,77.245-42.49,62.447-73.809a28.135,28.135,0,0,1,12.457.969C580.247,231.921,585.285,262.613,580.933,271.32Z"/>
            <path id="Path_45" data-name="Path 45" className="cls-7" d="M467.425,257.737s30.211,6.7,28.338,57.9c6.83,3.326,18.926-2.671,19.636-9.293s-.414-40.741-31.463-54.6C474.19,248.183,467.425,257.737,467.425,257.737Z"/>
            <path id="Path_46" data-name="Path 46" className="cls-7" d="M513.766,239.86s28.976,6.425,27.179,55.532c6.551,3.19,18.153-2.562,18.833-8.913s-.4-39.075-30.176-52.372C520.254,230.7,513.766,239.86,513.766,239.86Z"/>
            <path id="Path_47" data-name="Path 47" className="cls-5" d="M506.422,271.173s-15.511,2.83-16.656,7.787,20.959-3.289,20.272-5.236S508.469,270.744,506.422,271.173Z"/>
            <path id="Path_48" data-name="Path 48" className="cls-5" d="M552.235,255.473s-15.511,2.831-16.657,7.788,20.96-3.29,20.272-5.237S554.281,255.044,552.235,255.473Z"/>
            <path id="Path_49" data-name="Path 49" className="cls-7" d="M499.889,469.8c.152,1.723-11.52,6.052-23.394,4.863-8.4-.839-16.9-4.441-21.393-13.677-8.886-18.275-13.085-51.318-7.195-66.511,1.3-3.342,3.082-5.823,5.415-7.092,0,0-9.9,33.186,39.268,26.022a72.048,72.048,0,0,0-.538,11.627C492.6,445.274,499.673,467.345,499.889,469.8Z"/>
            <path id="Path_50" data-name="Path 50" className="cls-7" d="M533.31,431.123s2.726,27.568,5.933,28.255,43.063-15.576,43.178-27.258-1.947-21.074-6.757-24.51S532.416,423.417,533.31,431.123Z"/>
            <circle id="Ellipse_1" data-name="Ellipse 1" className="cls-3" cx="3.97" cy="3.97" r="3.97" transform="translate(552.988 351.644)"/>
            <path id="Path_51" data-name="Path 51" className="cls-4" d="M473.274,328.126s-8.034,40.162-3.025,66.275"/>
            <path id="Path_52" data-name="Path 52" className="cls-10" d="M499.889,469.8c.152,1.723-11.52,6.052-23.394,4.863,14.763-8.415,7.092-48.052,4.719-50.842-2.9-3.409-19.392-1.166-28.1-12.009a25.072,25.072,0,0,1-5.208-17.337c1.3-3.342,3.082-5.823,5.415-7.092,0,0-9.9,33.186,39.268,26.022C489.535,435.783,499.628,466.86,499.889,469.8Z"/>
            <path id="Path_53" data-name="Path 53" className="cls-10" d="M584.414,429.628a32.709,32.709,0,0,1-.273,3.867c-2.521,17.867-46.271,37.564-62.308,41.368s-21.944-5.065-21.944-5.065c-.216-2.453-7.29-24.524-7.837-44.768l.538-11.627s9.088,44.068,18.248,49.106,18.477,2.292,17.867-12.062,3.369-24.179,11.076-27.44C547.321,419.822,569.495,452.775,584.414,429.628Z"/>
          </g>
        </g>
        <g id="Group_10" data-name="Group 10">
          <g id="Group_8" data-name="Group 8">
            <path id="Path_54" data-name="Path 54" className="cls-5" d="M610.863,474.573S629.646,409.131,677.6,386.8c-3.207,13.708-1.146,94.433-26.8,113.169H594.218Z"/>
            <path id="Path_55" data-name="Path 55" className="cls-4" d="M677.6,386.8s-24.281,23.87-33.672,56.584S626.745,494.58,623.538,500"/>
            <path id="Path_56" data-name="Path 56" className="cls-4" d="M613.588,466.531s14.537,10.712,15.222,22.075c26.568-12.506,36.118-11.038,36.118-11.038"/>
            <path id="Path_57" data-name="Path 57" className="cls-4" d="M623.538,442.666s13.345,8.326,14.8,19.162c0,0,21.05-10.439,32.9-10.8"/>
            <path id="Path_58" data-name="Path 58" className="cls-4" d="M639.258,418.147s8.566,3.341,9.365,12.093a73.357,73.357,0,0,1,25.718-5.036"/>
          </g>
          <g id="Group_9" data-name="Group 9">
            <path id="Path_59" data-name="Path 59" className="cls-15" d="M558.714,499.97s-.229-40.114,54.058-57.3C620.56,474.725,598.341,500,598.341,500Z"/>
            <path id="Path_60" data-name="Path 60" className="cls-4" d="M612.772,442.666S578.087,487.709,578.365,500"/>
            <path id="Path_61" data-name="Path 61" className="cls-4" d="M564.609,479.22s13.471,3.7,15.642,13.574a59.046,59.046,0,0,1,24.465-2.057"/>
            <path id="Path_62" data-name="Path 62" className="cls-4" d="M578.005,461.828s10.852,6.368,11.528,13.985c16.94-5.783,22.6-2.678,22.6-2.678"/>
            <path id="Path_63" data-name="Path 63" className="cls-4" d="M593.081,451.031s5.677,4.744,6.385,9.867a44.584,44.584,0,0,1,14.89-1.5"/>
          </g>
        </g>
        <g id="Group_12" data-name="Group 12">
          <g id="Group_11" data-name="Group 11">
            <path id="Path_64" data-name="Path 64" className="cls-5" d="M252.343,463.443s11-113.671-119.914-95.117C134.491,421.583,191.184,462.354,252.343,463.443Z"/>
            <path id="Path_65" data-name="Path 65" className="cls-4" d="M132.429,368.326s46.729,57.354,118.883,92.528"/>
            <path id="Path_66" data-name="Path 66" className="cls-4" d="M144.448,407.2l25.723-1.037s.126-26.453,6.046-38.961"/>
            <path id="Path_67" data-name="Path 67" className="cls-4" d="M164.594,430.83l34.034-2.634s-1.989-45.449,2.327-55.122"/>
            <path id="Path_68" data-name="Path 68" className="cls-4" d="M191.871,448.855l30.384-4.049s.949-47.565,7.1-53.032"/>
          </g>
          <path id="Path_69" data-name="Path 69" className="cls-15" d="M252.343,463.443s-29.434-25.6,0-70.493C275.364,415.4,280.861,451.7,252.343,463.443Z"/>
          <path id="Path_70" data-name="Path 70" className="cls-4" d="M252.343,392.95s12.026,19.812,0,70.493"/>
          <path id="Path_71" data-name="Path 71" className="cls-4" d="M242.273,413.3s12.4,5.075,15.415,8.4c7.941-5.5,9.785-6.836,9.785-6.836"/>
          <path id="Path_72" data-name="Path 72" className="cls-4" d="M239.35,428.2s15.782,6.3,17.537,9.176c8.055-5.939,14.838-6.741,14.838-6.741"/>
          <path id="Path_73" data-name="Path 73" className="cls-4" d="M240.45,441.824s13.173,6.389,14.423,9.566a24.062,24.062,0,0,1,15.374-6.819"/>
        </g>
      </g>
    </g>
  </g>
</svg>
