<svg xmlns="http://www.w3.org/2000/svg" xmlns:xlink="http://www.w3.org/1999/xlink" width="95" height="43" viewBox="0 0 95 43"><defs><style>.a{clip-path:url(#b);}.b,.d{fill:#fff;}.b{font-size:5px;}.b,.c{font-family:HiraMaruProN-W4, Hiragino Maru Gothic ProN;}.c{fill:#fff;font-size:31px;}.e{fill:#8e04b7;}</style><clipPath id="b"><rect width="95" height="43"/></clipPath></defs><g id="a" class="a"><rect class="e" width="95" height="43"/><g transform="translate(0 -1)"><text class="b" transform="translate(40 38)"><tspan x="0" y="0">Your business is live</tspan></text><text class="c" transform="translate(37 32)"><tspan x="0" y="0">BIZ</tspan></text><g transform="translate(4.021 7.021)"><path class="d" d="M30.437,23.129,23.628,16.32h0a7.967,7.967,0,0,1,.175,1.666v4.259a10.836,10.836,0,0,1-1.7,5.82,4.748,4.748,0,0,0,4.673,3.895A5.175,5.175,0,0,0,30.437,23.129Zm0,0"/><path class="d" d="M8.157,17.985a7.717,7.717,0,0,1,.184-1.673l-.01.009L1.522,23.129a5.175,5.175,0,0,0,3.657,8.83,4.748,4.748,0,0,0,4.673-3.895,10.836,10.836,0,0,1-1.7-5.82Zm0,0"/><path class="d" d="M19.1,5.4l.569-1.328A3.622,3.622,0,0,1,23,1.873h0A.935.935,0,0,0,23.935.9a.954.954,0,0,0-.97-.9,5.491,5.491,0,0,0-5.019,3.333l-.778,1.815h.316A5.3,5.3,0,0,1,19.1,5.4Zm0,0"/><path class="d" d="M8.959,1.873h0a3.622,3.622,0,0,1,3.333,2.2L12.862,5.4a5.3,5.3,0,0,1,1.613-.25h.316l-.778-1.815A5.491,5.491,0,0,0,8.994,0a.954.954,0,0,0-.97.9A.935.935,0,0,0,8.959,1.873Zm0,0"/><path class="d" d="M10.488,25.072H21.472a8.956,8.956,0,0,0,.432-2.139H10.056A8.968,8.968,0,0,0,10.488,25.072Zm0,0"/><path class="d" d="M10.029,18.921h11.9V21.06h-11.9Zm0,0"/><path class="d" d="M10.1,17.049H21.857a5.943,5.943,0,0,0-2.311-3.829,3.442,3.442,0,0,0-2.062-6.2H14.475a3.442,3.442,0,0,0-2.062,6.2A5.947,5.947,0,0,0,10.1,17.049Zm0,0"/><path class="d" d="M12.218,28.112l3.054,3.524a.936.936,0,0,0,1.415,0l3.054-3.524a9.012,9.012,0,0,0,.856-1.167H11.362A8.973,8.973,0,0,0,12.218,28.112Zm0,0"/></g></g></g></svg>