<?xml version="1.0"?>
<svg xmlns="http://www.w3.org/2000/svg" height="512px" viewBox="-39 0 411 411.22243" width="512px" class=""><g><path d="m108.640625 258.476562c-16.078125-17.125-27.886719-35.832031-35.101563-55.597656-7.355468-19.808594-10.464843-40.941406-9.125-62.03125 2.542969-38.714844 19.015626-75.203125 46.367188-102.714844 7.988281-8.027343 16.847656-15.128906 26.417969-21.175781-28.992188 5.835938-55.597657 20.167969-76.417969 41.175781-27.351562 27.511719-43.824219 64-46.367188 102.714844-1.339843 21.085938 1.769532 42.21875 9.125 62.027344 7.214844 19.769531 19.023438 38.476562 35.101563 55.601562l108.453125 115.523438 34.390625-36.628906zm0 0" fill="#d4e1f4" data-original="#D4E1F4" class=""/><path d="m250.023438 75.371094c-21.21875-22.53125-50.703126-35.441406-81.65625-35.75-.414063-.003906-.828126-.007813-1.246094-.007813-30.515625-.011719-59.761719 12.238281-81.15625 34-22.101563 22.230469-34.59375 52.25-34.785156 83.601563-.699219 65.527344 50.726562 119.398437 114.640624 120.082031.414063 0 .820313.007813 1.230469.007813 63.355469 0 115.261719-52.5 115.960938-117.601563.480469-31.347656-11.363281-61.628906-32.988281-84.332031zm-82.972657 187.9375c-.359375 0-.722656 0-1.078125-.007813-20.398437-.21875-40.234375-6.707031-56.816406-18.585937 1.351562-31.003906 26.867188-55.453125 57.898438-55.476563 31.035156-.019531 56.582031 24.394531 57.972656 55.394531-16.894532 12.136719-37.175782 18.667969-57.976563 18.675782zm70.773438-29.476563c-6.4375-34.003906-36.160157-58.613281-70.769531-58.597656-34.605469.019531-64.300782 24.664063-70.703126 58.671875-41.390624-41.523438-41.597656-108.640625-.460937-150.417969 19.046875-19.375 45.160156-30.160156 72.328125-29.867187 27.167969.289062 53.042969 11.632812 71.671875 31.410156 39.625 42.015625 38.707031 107.90625-2.066406 148.800781zm0 0" fill="#1ae5be" data-original="#1AE5BE" class="" style="fill:#9B1AC2" data-old_color="#1ae5be"/><path d="m167.09375 66.683594c-25.402344 0-46 20.597656-46 46 0 25.40625 20.597656 46 46 46 25.40625 0 46-20.59375 46-46-.027344-25.390625-20.605469-45.96875-46-46zm0 78c-17.671875 0-32-14.324219-32-32 0-17.671875 14.328125-32 32-32 17.675781 0 32 14.328125 32 32-.019531 17.667968-14.332031 31.980468-32 32zm0 0" fill="#1ae5be" data-original="#1AE5BE" class="" style="fill:#9B1AC2" data-old_color="#1ae5be"/><path d="m48.433594 288.058594 113.5625 120.953125c1.320312 1.410156 3.167968 2.210937 5.101562 2.210937s3.78125-.800781 5.105469-2.210937l113.554687-120.953125c17.378907-18.511719 30.179688-38.828125 38.042969-60.382813 8.027344-21.640625 11.414063-44.726562 9.941407-67.761719-2.765626-42.089843-20.675782-81.753906-50.417969-111.664062-30.792969-30.890625-72.613281-48.25-116.230469-48.25-43.613281 0-85.433594 17.359375-116.226562 48.25-29.742188 29.910156-47.652344 69.574219-50.421876 111.664062-1.472656 23.035157 1.914063 46.121094 9.941407 67.761719 7.867187 21.554688 20.667969 41.871094 38.046875 60.382813zm-34.019532-127.210938c2.542969-38.714844 19.015626-75.203125 46.367188-102.714844 28.167969-28.253906 66.421875-44.132812 106.3125-44.132812 39.894531 0 78.148438 15.878906 106.3125 44.132812 27.355469 27.511719 43.824219 64 46.367188 102.714844 1.339843 21.085938-1.765626 42.21875-9.125 62.027344-7.210938 19.769531-19.019532 38.476562-35.097657 55.601562l-108.457031 115.523438-108.453125-115.523438c-16.078125-17.125-27.886719-35.832031-35.101563-55.597656-7.355468-19.808594-10.464843-40.945312-9.125-62.03125zm0 0" fill="#0635c9" data-original="#0635C9" class="active-path" style="fill:#374957" data-old_color="#0635c9"/></g> </svg>
