<svg xmlns="http://www.w3.org/2000/svg" xmlns:xlink="http://www.w3.org/1999/xlink" width="16" height="16" viewBox="0 0 16 16">
  <defs>
    <clipPath id="clip-custom_1">
      <rect width="16" height="16"/>
    </clipPath>
  </defs>
  <g id="custom_1" data-name="custom – 1" clip-path="url(#clip-custom_1)">
    <rect width="16" height="16" fill="#fff"/>
    <path id="Path_3" data-name="Path 3" d="M25.757,18.829,22.772,16.32h0a2.488,2.488,0,0,1,.077.614V18.5a3.546,3.546,0,0,1-.745,2.145,2.019,2.019,0,0,0,2.049,1.437,2.31,2.31,0,0,0,2.095-1.177,1.692,1.692,0,0,0-.49-2.078Zm0,0" transform="translate(-11.159 -7.375)" fill="#8e04b7"/>
    <path id="Path_4" data-name="Path 4" d="M3.583,16.929a2.412,2.412,0,0,1,.083-.617l0,0L.675,18.824A1.692,1.692,0,0,0,.185,20.9a2.309,2.309,0,0,0,2.093,1.178,2.019,2.019,0,0,0,2.049-1.437A3.546,3.546,0,0,1,3.582,18.5Zm0,0" transform="translate(0.506 -7.37)" fill="#8e04b7"/>
    <path id="Path_5" data-name="Path 5" d="M18.016,1.99l.248-.489a1.621,1.621,0,0,1,1.46-.811h0a.451.451,0,0,0,.3-.106.315.315,0,0,0,.116-.252A.4.4,0,0,0,19.71,0a2.454,2.454,0,0,0-2.2,1.228l-.341.669h.137a2.731,2.731,0,0,1,.709.093Zm0,0" transform="translate(-8.623 1.033)" fill="#8e04b7"/>
    <path id="Path_6" data-name="Path 6" d="M8.433.69h0A1.621,1.621,0,0,1,9.895,1.5l.25.489a2.73,2.73,0,0,1,.707-.092h.139l-.341-.669A2.454,2.454,0,0,0,8.449,0a.4.4,0,0,0-.425.332.314.314,0,0,0,.114.253.451.451,0,0,0,.3.106Zm0,0" transform="translate(-3.756 1.033)" fill="#8e04b7"/>
    <path id="Path_7" data-name="Path 7" d="M10.245,23.721H15.06a2.847,2.847,0,0,0,.189-.788H10.056A2.851,2.851,0,0,0,10.245,23.721Zm0,0" transform="translate(-4.764 -11.989)" fill="#8e04b7"/>
    <path id="Path_8" data-name="Path 8" d="M10.029,18.921h5.217v.788H10.029Zm0,0" transform="translate(-4.748 -9.711)" fill="#8e04b7"/>
    <path id="Path_9" data-name="Path 9" d="M10.1,10.716h5.154A2.168,2.168,0,0,0,14.241,9.3a1.16,1.16,0,0,0,.529-1.417,1.512,1.512,0,0,0-1.433-.868H12.016a1.512,1.512,0,0,0-1.433.868A1.16,1.16,0,0,0,11.112,9.3,2.167,2.167,0,0,0,10.1,10.716Zm0,0" transform="translate(-4.788 -2.792)" fill="#8e04b7"/>
    <path id="Path_10" data-name="Path 10" d="M11.737,27.375l1.339,1.3a.463.463,0,0,0,.619,0l1.339-1.3a3.422,3.422,0,0,0,.375-.43H11.362A3.407,3.407,0,0,0,11.737,27.375Zm0,0" transform="translate(-5.497 -14.084)" fill="#8e04b7"/>
  </g>
</svg>
