<svg className="MuiSvgIcon-root-143" focusable="false" viewBox="0 0 802.577 1136.984" aria-hidden="true" role="presentation" xmlns="http://www.w3.org/2000/svg" width="802.577" height="1136.984" style="width: 0.8em; height: 0.8em;"><path d="M666.918,360.647c0-98.506-36.955-187.668-96.612-252.149C510.584,43.944,428.094,4,336.959,4S163.335,43.944,103.612,108.5C43.955,172.979,7,262.141,7,360.647S43.955,548.315,103.612,612.8c59.723,64.553,142.212,104.5,233.347,104.5S510.584,677.35,570.306,612.8C629.963,548.315,666.918,459.153,666.918,360.647Z" transform="translate(64.329 -4)" fill="#424242"></path><path d="M6,300.318c0,71.329,150.483,142.659,401.288,142.659,235.289,0,401.288-71.329,401.288-142.659C808.577,157.659,651.138,15,407.288,15,156.483,15,6,157.659,6,300.318Z" transform="translate(-6 694.008)" fill="#424242"></path></svg>
