<?xml version="1.0"?>
<svg xmlns="http://www.w3.org/2000/svg" height="512px" viewBox="0 0 512 512" width="512px"><g><path d="m416 512h-320c-53.023438 0-96-42.976562-96-96v-320c0-53.023438 42.976562-96 96-96h320c53.023438 0 96 42.976562 96 96v320c0 53.023438-42.976562 96-96 96zm0 0" fill="#e5d7ff" data-original="#cb98ff"/><path d="m234.671875 384c19.3125 0 35.472656-13.761719 39.183594-32h-78.382813c3.726563 18.238281 19.871094 32 39.199219 32zm0 0" fill="#d9a4fc" data-original="#D9A4FC"/><path d="m315.472656 282.625c-.273437 0-.542968.046875-.816406.046875-47.054688 0-85.328125-38.289063-85.328125-85.328125 0-18.480469 5.96875-35.566406 16-49.550781v-9.121094c0-5.902344-4.769531-10.671875-10.65625-10.671875s-10.671875 4.769531-10.671875 10.671875v11.519531c-36.128906 5.199219-64 36.273438-64 73.808594v29.742188c0 21.105468-9.246094 41.027343-25.472656 54.753906-4.144532 3.550781-6.527344 8.71875-6.527344 14.175781 0 10.289063 8.367188 18.671875 18.671875 18.671875h176c10.289063 0 18.671875-8.367188 18.671875-18.671875 0-5.457031-2.382812-10.625-6.625-14.257813-8.429688-7.117187-14.910156-15.964843-19.246094-25.789062zm0 0" fill="#9b19c2" data-original="#9b19c2" className="active-path" style="fill:#9b19c2"/><path d="m314.671875 128c-38.222656 0-69.328125 31.105469-69.328125 69.328125s31.105469 69.328125 69.328125 69.328125 69.328125-31.089844 69.328125-69.328125-31.105469-69.328125-69.328125-69.328125zm32.0625 57.648438-34.671875 40c-1.933594 2.238281-4.71875 3.566406-7.679688 3.679687-.125 0-.253906 0-.382812 0-2.816406 0-5.535156-1.121094-7.535156-3.121094l-18.671875-18.671875c-4.160157-4.160156-4.160157-10.910156 0-15.085937 4.160156-4.160157 10.910156-4.160157 15.085937 0l10.5625 10.558593 27.167969-31.34375c3.871094-4.464843 10.589844-4.929687 15.039063-1.070312 4.464843 3.871094 4.925781 10.605469 1.085937 15.054688zm0 0" fill="#d9a4fc" data-original="#D9A4FC"/></g> </svg>
