<svg xmlns="http://www.w3.org/2000/svg" width="328.616" height="389.855" viewBox="0 0 328.616 389.855">
  <g id="Group_4" data-name="Group 4" transform="translate(-36 -6.145)">
    <g id="Group_3" data-name="Group 3">
      <g id="Group_2" data-name="Group 2">
        <g id="Group_1" data-name="Group 1">
          <path id="Path_2" data-name="Path 2" d="M245.434,75.371a109.924,109.924,0,0,0-79.771-35.75c-.4,0-.809-.008-1.217-.008a109.864,109.864,0,0,0-79.283,34,121.053,121.053,0,0,0-33.982,83.6c-.683,65.527,49.556,119.4,111.995,120.082.4,0,.8.008,1.2.008,61.893,0,112.6-52.5,113.284-117.6A121.171,121.171,0,0,0,245.434,75.371ZM164.376,263.309c-.351,0-.706,0-1.053-.008a95.6,95.6,0,0,1-55.5-18.586c1.32-31,26.247-55.453,56.562-55.477s55.276,24.395,56.635,55.395A95.633,95.633,0,0,1,164.376,263.309Zm69.14-29.477c-6.289-34-35.326-58.613-69.136-58.6S101.563,199.9,95.309,233.906c-40.435-41.523-40.638-108.641-.45-150.418a96.064,96.064,0,0,1,140.676,1.543C274.245,127.047,273.348,192.938,233.516,233.832Zm0,0" transform="translate(35.89 6.145)" fill="#9b1ac2"/>
          <path id="Path_3" data-name="Path 3" d="M167.094,66.684a46,46,0,1,0,46,46A46,46,0,0,0,167.094,66.684Zm0,78a32,32,0,1,1,32-32A32,32,0,0,1,167.094,144.684Zm0,0" transform="translate(33.214 1.681)" fill="#9b1ac2"/>
          <path id="Path_4" data-name="Path 4" d="M47.659,273.091,159.4,387.759a7.064,7.064,0,0,0,10.043,0L281.181,273.091c17.1-17.55,29.7-36.811,37.433-57.245A150.868,150.868,0,0,0,328.4,151.6a162.873,162.873,0,0,0-49.61-105.862C248.486,16.457,207.336,0,164.418,0S80.353,16.457,50.054,45.743A162.9,162.9,0,0,0,.44,151.6a150.868,150.868,0,0,0,9.782,64.241C17.963,236.28,30.559,255.541,47.659,273.091ZM14.185,152.49a150.636,150.636,0,0,1,300.466,0,138.068,138.068,0,0,1-8.979,58.8c-7.1,18.742-18.715,36.477-34.535,52.712l-60.861,62.459-45.858,47.062L57.7,264.007c-15.82-16.235-27.44-33.97-34.539-52.709A138.144,138.144,0,0,1,14.185,152.49Zm0,0" transform="translate(35.89 6.145)" fill="#b2b2b2"/>
        </g>
      </g>
    </g>
  </g>
</svg>
